<svg width="32" height="35" viewBox="0 0 32 35" fill="none" xmlns="http://www.w3.org/2000/svg">
<path fill-rule="evenodd" clip-rule="evenodd" d="M28.7553 8.79999H3.24433C2.07812 8.79999 1.15926 9.79373 1.25045 10.9564L2.91319 32.1564C2.99482 33.1971 3.86315 34 4.90707 34H27.0926C28.1365 34 29.0048 33.1971 29.0864 32.1564L30.7492 10.9564C30.8404 9.79373 29.9215 8.79999 28.7553 8.79999ZM3.24433 7.79999C1.49501 7.79999 0.116729 9.2906 0.25351 11.0346L1.91626 32.2346C2.03869 33.7956 3.34119 35 4.90707 35H27.0926C28.6584 35 29.9609 33.7956 30.0834 32.2346L31.7461 11.0346C31.8829 9.2906 30.5046 7.79999 28.7553 7.79999H3.24433Z" fill="white"/>
<path fill-rule="evenodd" clip-rule="evenodd" d="M7.50383 18.4726L7.004 18.4857C6.50417 18.4989 6.50417 18.4987 6.50416 18.4984L6.50407 18.4947L6.50382 18.4842L6.50303 18.4446C6.50241 18.4101 6.50164 18.3595 6.50104 18.294C6.49982 18.1629 6.49925 17.9718 6.50174 17.7292C6.50672 17.2443 6.52395 16.553 6.57289 15.7241C6.67065 14.0685 6.8955 11.853 7.4061 9.63088C7.91504 7.41602 8.71689 5.15345 9.99255 3.43421C11.2804 1.69854 13.068 0.5 15.5 0.5C17.9321 0.5 19.7197 1.69854 21.0075 3.43421C22.2832 5.15345 23.085 7.41602 23.5939 9.63089C24.1045 11.853 24.3294 14.0686 24.4271 15.7241C24.4761 16.553 24.4933 17.2443 24.4983 17.7292C24.5008 17.9718 24.5002 18.1629 24.499 18.294C24.4984 18.3595 24.4976 18.4101 24.497 18.4446L24.4962 18.4842L24.496 18.4947L24.4959 18.4976C24.4959 18.4978 24.4958 18.4989 23.996 18.4857L23.4962 18.4726L23.4962 18.4704L23.4964 18.4619L23.4972 18.4265C23.4977 18.3949 23.4984 18.3472 23.499 18.2847C23.5002 18.1597 23.5008 17.9751 23.4983 17.7395C23.4935 17.2682 23.4767 16.5934 23.4289 15.783C23.333 14.16 23.1132 12.0041 22.6193 9.85483C22.1238 7.69826 21.3614 5.58941 20.2044 4.03008C19.0596 2.48718 17.5461 1.5 15.5 1.5C13.454 1.5 11.9404 2.48718 10.7956 4.03008C9.63862 5.58941 8.87624 7.69826 8.3807 9.85483C7.88684 12.0041 7.66699 14.16 7.57115 15.783C7.52331 16.5934 7.50652 17.2682 7.50169 17.7395C7.49927 17.9751 7.49984 18.1597 7.50099 18.2847C7.50157 18.3472 7.5023 18.3949 7.50287 18.4265L7.50357 18.4619L7.50377 18.4704L7.50383 18.4726Z" fill="white"/>
</svg>
