<svg width="16" height="16" viewBox="0 0 16 16" fill="none" xmlns="http://www.w3.org/2000/svg">
<path d="M8.42875 3.25725L9.76117 1.03654L13.1965 1.46595L14.5 3.63849V6.32062L8.01451 14.1959L1.93879 6.2507L1.05635 4.04458L2.34556 1.89588L5.35445 0.606363L7.61589 3.32009L8.06656 3.86089L8.42875 3.25725Z" fill="white" stroke="white"/>
<path d="M7.90038 3.0948C6.70018 -2.52108 -2.59083 1.90389 1.76074 7.60175C6.1123 13.2996 8.40039 15.4908 8.40039 15.4908" stroke="white"/>
<path d="M7.89433 3.0948C9.09453 -2.52108 18.7306 1.90389 14.379 7.60175C10.0275 13.2996 7.7002 15.5 7.7002 15.5" stroke="white"/>
<path d="M7.39062 2.7077L8.40394 2.70776L8.383 3.24097H7.39062V2.7077Z" fill="white"/>
</svg>
