<svg width="32" height="35" viewBox="0 0 32 35" fill="none" xmlns="http://www.w3.org/2000/svg"><path fill-rule="evenodd" clip-rule="evenodd" d="M28.755 8.8H3.245a2 2 0 00-1.995 2.156l1.663 21.2A2 2 0 004.907 34h22.186a2 2 0 001.993-1.844l1.663-21.2A2 2 0 0028.755 8.8zm-25.51-1a3 3 0 00-2.991 3.235l1.662 21.2A3 3 0 004.907 35h22.186a3 3 0 002.99-2.765l1.663-21.2a3 3 0 00-2.99-3.235H3.243z" fill="#fff"/><path fill-rule="evenodd" clip-rule="evenodd" d="M7.504 18.473l-.5.013-.5.012v-.013l-.001-.04-.002-.151a41.586 41.586 0 01.072-2.57c.098-1.655.322-3.871.833-6.093.509-2.215 1.31-4.478 2.587-6.197C11.28 1.7 13.068.5 15.5.5c2.432 0 4.22 1.199 5.508 2.934 1.275 1.72 2.077 3.982 2.586 6.197.51 2.222.735 4.438.833 6.093a41.545 41.545 0 01.072 2.57l-.002.15v.04l-.001.01v.004l-.5-.012-.5-.013v-.011l.001-.035a22.327 22.327 0 00.001-.688 40.58 40.58 0 00-.07-1.956c-.095-1.623-.315-3.779-.809-5.928-.495-2.157-1.258-4.266-2.415-5.825C19.06 2.487 17.546 1.5 15.5 1.5s-3.56.987-4.704 2.53C9.639 5.59 8.876 7.698 8.38 9.855c-.494 2.15-.714 4.305-.81 5.928a40.58 40.58 0 00-.07 2.502l.002.142v.046z" fill="#fff"/></svg>