<svg width="16" height="16" viewBox="0 0 16 16" fill="none" xmlns="http://www.w3.org/2000/svg"><path d="M8.429 3.257l1.332-2.22 3.436.429L14.5 3.638v2.683l-6.485 7.875L1.939 6.25l-.883-2.206 1.29-2.15L5.354.607 7.616 3.32l.45.54.363-.603z" fill="#fff" stroke="#fff"/><path d="M7.9 3.095C6.7-2.521-2.59 1.904 1.76 7.602 6.113 13.3 8.4 15.49 8.4 15.49" stroke="#fff"/><path d="M7.894 3.095c1.2-5.616 10.837-1.191 6.485 4.507C10.028 13.3 7.7 15.5 7.7 15.5" stroke="#fff"/><path d="M7.39 2.708h1.014l-.021.533h-.992v-.533z" fill="#fff"/></svg>